<svg width="31" height="30" viewBox="0 0 31 30" fill="none" xmlns="http://www.w3.org/2000/svg">
<path fill-rule="evenodd" clip-rule="evenodd" d="M12.4003 15.8579C15.7649 15.8579 18.4619 13.126 18.4619 9.71775C18.4619 6.3096 15.7649 3.57764 12.4003 3.57764C9.03564 3.57764 6.33857 6.3096 6.33857 9.71775C6.33857 13.126 9.03564 15.8579 12.4003 15.8579ZM12.4003 18.8645C7.45847 18.8645 3.23926 19.6547 3.23926 22.8113C3.23926 25.9669 7.43279 26.7855 12.4003 26.7855C17.3408 26.7855 21.5612 25.9953 21.5612 22.8386C21.5612 19.6819 17.3677 18.8645 12.4003 18.8645ZM25.1009 12.2352H26.5705C27.1753 12.2352 27.6686 12.7353 27.6686 13.3488C27.6686 13.9621 27.1753 14.4622 26.5705 14.4622H25.1009V15.9003C25.1009 16.5137 24.609 17.0138 24.003 17.0138C23.3981 17.0138 22.9049 16.5137 22.9049 15.9003V14.4622H21.4379C20.8317 14.4622 20.3398 13.9621 20.3398 13.3488C20.3398 12.7353 20.8317 12.2352 21.4379 12.2352H22.9049V10.7985C22.9049 10.1851 23.3981 9.68497 24.003 9.68497C24.609 9.68497 25.1009 10.1851 25.1009 10.7985V12.2352Z" fill="white"/>
</svg>
