<svg width="45" height="45" viewBox="0 0 45 45" fill="none" xmlns="http://www.w3.org/2000/svg">
<path fill-rule="evenodd" clip-rule="evenodd" d="M30.9337 5.96735L30.9356 7.3408C35.9825 7.73636 39.3166 11.1755 39.3219 16.4496L39.3419 31.8873C39.349 37.6376 35.7365 41.1756 29.946 41.1847L15.8016 41.2031C10.0472 41.2104 6.38945 37.5881 6.38221 31.8213L6.36232 16.565C6.35508 11.2561 9.57145 7.8261 14.6185 7.36279L14.6167 5.98932C14.6149 5.18355 15.2118 4.57741 16.0078 4.57741C16.8037 4.57558 17.4007 5.17989 17.4025 5.98565L17.4043 7.26755L28.1497 7.25291L28.1479 5.97102C28.146 5.16525 28.743 4.56092 29.5391 4.55909C30.3168 4.55725 30.9319 5.16159 30.9337 5.96735ZM9.14995 17.1308L36.5379 17.0942V16.4533C36.4602 12.516 34.4847 10.4503 30.939 10.1427L30.9409 11.5528C30.9409 12.3402 30.3276 12.9647 29.5499 12.9647C28.754 12.9665 28.155 12.3439 28.155 11.5564L28.1534 10.0731L17.4079 10.0877L17.4098 11.5692C17.4098 12.3585 16.8146 12.9812 16.0186 12.9812C15.2227 12.983 14.6239 12.3622 14.6239 11.5729L14.6221 10.1628C11.0946 10.5162 9.14272 12.5893 9.14814 16.5613L9.14995 17.1308ZM28.7882 25.454V25.4742C28.8064 26.3166 29.4938 26.9557 30.3276 26.9374C31.1417 26.9172 31.7912 26.2195 31.7731 25.3771C31.7351 24.5713 31.082 23.9139 30.2697 23.9157C29.4377 23.934 28.7864 24.6116 28.7882 25.454ZM30.2824 33.6764C29.4504 33.6581 28.7793 32.964 28.7774 32.1218C28.7593 31.2793 29.4268 30.5816 30.2589 30.5615H30.2771C31.1272 30.5615 31.8165 31.2555 31.8165 32.1163C31.8183 32.9769 31.1309 33.6746 30.2824 33.6764ZM21.3352 25.4833C21.3715 26.3258 22.0606 26.9832 22.8928 26.9465C23.7068 26.9081 24.3563 26.2122 24.32 25.3698C24.3001 24.5456 23.6308 23.9047 22.8167 23.9066C21.9847 23.9432 21.3334 24.6409 21.3352 25.4833ZM22.9001 33.5941C22.0679 33.6308 21.3805 32.9732 21.3425 32.1309C21.3425 31.2885 21.9919 30.5926 22.8241 30.5541C23.6381 30.5523 24.3092 31.1932 24.3274 32.0155C24.3653 32.8598 23.7141 33.5556 22.9001 33.5941ZM13.8822 25.5475C13.9184 26.3897 14.6077 27.0491 15.4398 27.0107C16.2538 26.974 16.9033 26.2763 16.8653 25.4339C16.8472 24.6098 16.1778 23.9689 15.362 23.9707C14.5299 24.0073 13.8804 24.705 13.8822 25.5475ZM15.447 33.6033C14.6149 33.6418 13.9275 32.9824 13.8895 32.1401C13.8877 31.2976 14.5389 30.5999 15.371 30.5633C16.1851 30.5615 16.8562 31.2024 16.8743 32.0265C16.9123 32.8689 16.2629 33.5666 15.447 33.6033Z" fill="white"/>
</svg>
