<svg width="327" height="352" viewBox="0 0 327 352" fill="none" xmlns="http://www.w3.org/2000/svg">
<mask id="mask0_265_288" style="mask-type:luminance" maskUnits="userSpaceOnUse" x="48" y="51" width="232" height="250">
<path d="M245.254 263.891C290.312 215.386 290.312 136.744 245.254 88.2391C200.195 39.7341 127.14 39.7341 82.0813 88.2391C37.0225 136.744 37.0225 215.386 82.0813 263.891C127.14 312.396 200.195 312.396 245.254 263.891Z" fill="white"/>
</mask>
<g mask="url(#mask0_265_288)">
<path d="M49.4083 254.203L47.3213 256.453L55.3248 265.056L57.4118 262.807L49.4083 254.203Z" fill="#007AFF"/>
<path d="M47.3154 262.826L49.4053 265.073L57.3977 256.457L55.3078 254.211L47.3154 262.826Z" fill="#007AFF"/>
<path d="M49.4356 276.966L47.3486 279.215L55.3522 287.819L57.4391 285.569L49.4356 276.966Z" fill="#007AFF"/>
<path d="M47.332 285.577L49.4219 287.823L57.4143 279.208L55.3244 276.961L47.332 285.577Z" fill="#007AFF"/>
<path d="M49.4463 298.128L47.3594 300.377L55.3629 308.981L57.4499 306.731L49.4463 298.128Z" fill="#007AFF"/>
<path d="M47.3554 306.774L49.4453 309.02L57.4377 300.404L55.3478 298.158L47.3554 306.774Z" fill="#007AFF"/>
<path d="M49.379 186.796L47.292 189.045L55.2955 197.649L57.3825 195.399L49.379 186.796Z" fill="#007AFF"/>
<path d="M47.2714 195.392L49.3613 197.639L57.3537 189.023L55.2638 186.777L47.2714 195.392Z" fill="#007AFF"/>
<path d="M49.379 209.546L47.292 211.796L55.2955 220.4L57.3825 218.15L49.379 209.546Z" fill="#007AFF"/>
<path d="M47.2929 218.172L49.3828 220.419L57.3752 211.803L55.2853 209.557L47.2929 218.172Z" fill="#007AFF"/>
<path d="M49.3995 230.713L47.3125 232.963L55.316 241.566L57.403 239.317L49.3995 230.713Z" fill="#007AFF"/>
<path d="M47.3037 239.339L49.3936 241.585L57.3859 232.97L55.2961 230.723L47.3037 239.339Z" fill="#007AFF"/>
<path d="M49.3331 119.347L47.2461 121.596L55.2496 130.2L57.3366 127.95L49.3331 119.347Z" fill="#007AFF"/>
<path d="M47.2363 127.976L49.3262 130.222L57.3185 121.607L55.2287 119.36L47.2363 127.976Z" fill="#007AFF"/>
<path d="M49.3331 142.139L47.2461 144.389L55.2496 152.993L57.3366 150.743L49.3331 142.139Z" fill="#007AFF"/>
<path d="M47.2636 150.738L49.3535 152.984L57.3459 144.369L55.256 142.122L47.2636 150.738Z" fill="#007AFF"/>
<path d="M49.3545 163.306L47.2676 165.556L55.2711 174.159L57.3581 171.91L49.3545 163.306Z" fill="#007AFF"/>
<path d="M47.2754 171.904L49.3652 174.151L57.3576 165.535L55.2677 163.289L47.2754 171.904Z" fill="#007AFF"/>
<path d="M49.2774 51.9438L47.1904 54.1935L55.194 62.7971L57.2809 60.5474L49.2774 51.9438Z" fill="#007AFF"/>
<path d="M47.1972 60.5524L49.2871 62.799L57.2795 54.1833L55.1896 51.9367L47.1972 60.5524Z" fill="#007AFF"/>
<path d="M49.3067 74.6879L47.2197 76.9376L55.2233 85.5413L57.3102 83.2916L49.3067 74.6879Z" fill="#007AFF"/>
<path d="M47.2148 83.3018L49.3047 85.5483L57.2971 76.9327L55.2072 74.6861L47.2148 83.3018Z" fill="#007AFF"/>
<path d="M49.3106 95.8559L47.2236 98.1056L55.2272 106.709L57.3141 104.46L49.3106 95.8559Z" fill="#007AFF"/>
<path d="M47.2265 104.487L49.3164 106.733L57.3088 98.1177L55.2189 95.8711L47.2265 104.487Z" fill="#007AFF"/>
<path d="M71.6456 254.201L69.5586 256.451L77.5621 265.055L79.6491 262.805L71.6456 254.201Z" fill="#007AFF"/>
<path d="M69.5459 262.803L71.6357 265.05L79.6281 256.434L77.5382 254.188L69.5459 262.803Z" fill="#007AFF"/>
<path d="M92.6788 254.178L90.5918 256.428L98.5953 265.031L100.682 262.782L92.6788 254.178Z" fill="#007AFF"/>
<path d="M90.5888 262.785L92.6787 265.031L100.671 256.416L98.5812 254.169L90.5888 262.785Z" fill="#007AFF"/>
<path d="M113.683 254.16L111.596 256.41L119.599 265.014L121.686 262.764L113.683 254.16Z" fill="#007AFF"/>
<path d="M111.619 262.779L113.709 265.026L121.701 256.41L119.611 254.164L111.619 262.779Z" fill="#007AFF"/>
<path d="M134.714 254.164L132.627 256.414L140.631 265.017L142.717 262.768L134.714 254.164Z" fill="#007AFF"/>
<path d="M132.604 262.76L134.694 265.007L142.687 256.391L140.597 254.144L132.604 262.76Z" fill="#007AFF"/>
<path d="M155.72 254.128L153.633 256.378L161.636 264.982L163.723 262.732L155.72 254.128Z" fill="#007AFF"/>
<path d="M153.637 262.754L155.727 265L163.719 256.385L161.629 254.138L153.637 262.754Z" fill="#007AFF"/>
<path d="M71.6739 276.929L69.5869 279.178L77.5905 287.782L79.6774 285.532L71.6739 276.929Z" fill="#007AFF"/>
<path d="M69.5625 285.57L71.6523 287.817L79.6447 279.201L77.5548 276.955L69.5625 285.57Z" fill="#007AFF"/>
<path d="M92.6768 276.927L90.5898 279.177L98.5934 287.781L100.68 285.531L92.6768 276.927Z" fill="#007AFF"/>
<path d="M90.5752 285.564L92.665 287.811L100.657 279.195L98.5675 276.949L90.5752 285.564Z" fill="#007AFF"/>
<path d="M113.711 276.939L111.624 279.189L119.628 287.793L121.715 285.543L113.711 276.939Z" fill="#007AFF"/>
<path d="M111.619 285.546L113.709 287.792L121.701 279.177L119.611 276.93L111.619 285.546Z" fill="#007AFF"/>
<path d="M134.727 276.909L132.64 279.159L140.643 287.763L142.73 285.513L134.727 276.909Z" fill="#007AFF"/>
<path d="M132.622 285.51L134.712 287.756L142.704 279.141L140.614 276.894L132.622 285.51Z" fill="#007AFF"/>
<path d="M155.748 276.908L153.661 279.158L161.665 287.761L163.752 285.512L155.748 276.908Z" fill="#007AFF"/>
<path d="M153.636 285.503L155.726 287.75L163.718 279.134L161.628 276.888L153.636 285.503Z" fill="#007AFF"/>
<path d="M71.6778 298.114L69.5908 300.363L77.5944 308.967L79.6813 306.717L71.6778 298.114Z" fill="#007AFF"/>
<path d="M69.5898 306.738L71.6797 308.984L79.6721 300.368L77.5822 298.122L69.5898 306.738Z" fill="#007AFF"/>
<path d="M92.7002 298.113L90.6133 300.363L98.6168 308.966L100.704 306.717L92.7002 298.113Z" fill="#007AFF"/>
<path d="M90.5888 306.732L92.6787 308.978L100.671 300.363L98.5812 298.116L90.5888 306.732Z" fill="#007AFF"/>
<path d="M113.716 298.107L111.629 300.357L119.632 308.96L121.719 306.711L113.716 298.107Z" fill="#007AFF"/>
<path d="M111.631 306.713L113.721 308.959L121.713 300.344L119.623 298.097L111.631 306.713Z" fill="#007AFF"/>
<path d="M134.737 298.088L132.65 300.338L140.654 308.942L142.741 306.692L134.737 298.088Z" fill="#007AFF"/>
<path d="M132.644 306.707L134.734 308.953L142.727 300.338L140.637 298.091L132.644 306.707Z" fill="#007AFF"/>
<path d="M155.752 298.075L153.665 300.325L161.669 308.929L163.756 306.679L155.752 298.075Z" fill="#007AFF"/>
<path d="M153.646 306.671L155.736 308.917L163.729 300.301L161.639 298.055L153.646 306.671Z" fill="#007AFF"/>
<path d="M71.6006 186.776L69.5137 189.026L77.5172 197.63L79.6042 195.38L71.6006 186.776Z" fill="#007AFF"/>
<path d="M69.5185 195.386L71.6084 197.632L79.6008 189.017L77.5109 186.77L69.5185 195.386Z" fill="#007AFF"/>
<path d="M92.6338 186.745L90.5469 188.995L98.5504 197.599L100.637 195.349L92.6338 186.745Z" fill="#007AFF"/>
<path d="M90.5381 195.367L92.6279 197.613L100.62 188.998L98.5304 186.751L90.5381 195.367Z" fill="#007AFF"/>
<path d="M113.654 186.744L111.567 188.994L119.571 197.597L121.658 195.348L113.654 186.744Z" fill="#007AFF"/>
<path d="M111.552 195.361L113.642 197.607L121.634 188.992L119.544 186.745L111.552 195.361Z" fill="#007AFF"/>
<path d="M134.658 186.709L132.571 188.959L140.575 197.562L142.662 195.313L134.658 186.709Z" fill="#007AFF"/>
<path d="M132.582 195.338L134.672 197.584L142.664 188.969L140.574 186.722L132.582 195.338Z" fill="#007AFF"/>
<path d="M155.68 186.708L153.593 188.957L161.596 197.561L163.683 195.311L155.68 186.708Z" fill="#007AFF"/>
<path d="M153.598 195.331L155.688 197.578L163.68 188.962L161.59 186.715L153.598 195.331Z" fill="#007AFF"/>
<path d="M71.628 209.538L69.541 211.788L77.5446 220.392L79.6315 218.142L71.628 209.538Z" fill="#007AFF"/>
<path d="M69.5341 218.136L71.624 220.382L79.6164 211.766L77.5265 209.52L69.5341 218.136Z" fill="#007AFF"/>
<path d="M92.6456 209.508L90.5586 211.758L98.5621 220.361L100.649 218.112L92.6456 209.508Z" fill="#007AFF"/>
<path d="M90.5537 218.117L92.6436 220.364L100.636 211.748L98.5461 209.502L90.5537 218.117Z" fill="#007AFF"/>
<path d="M113.665 209.489L111.578 211.739L119.582 220.342L121.669 218.092L113.665 209.489Z" fill="#007AFF"/>
<path d="M111.567 218.11L113.657 220.357L121.65 211.741L119.56 209.495L111.567 218.11Z" fill="#007AFF"/>
<path d="M134.687 209.488L132.6 211.738L140.603 220.341L142.69 218.092L134.687 209.488Z" fill="#007AFF"/>
<path d="M132.583 218.104L134.673 220.351L142.665 211.735L140.575 209.489L132.583 218.104Z" fill="#007AFF"/>
<path d="M155.69 209.47L153.604 211.719L161.607 220.323L163.694 218.073L155.69 209.47Z" fill="#007AFF"/>
<path d="M153.612 218.098L155.702 220.345L163.695 211.729L161.605 209.482L153.612 218.098Z" fill="#007AFF"/>
<path d="M71.6329 230.722L69.5459 232.972L77.5494 241.576L79.6364 239.326L71.6329 230.722Z" fill="#007AFF"/>
<path d="M69.5459 239.302L71.6357 241.548L79.6281 232.933L77.5382 230.686L69.5459 239.302Z" fill="#007AFF"/>
<path d="M92.6543 230.688L90.5674 232.937L98.5709 241.541L100.658 239.291L92.6543 230.688Z" fill="#007AFF"/>
<path d="M90.5761 239.296L92.666 241.543L100.658 232.927L98.5685 230.68L90.5761 239.296Z" fill="#007AFF"/>
<path d="M113.687 230.674L111.6 232.924L119.603 241.527L121.69 239.278L113.687 230.674Z" fill="#007AFF"/>
<path d="M111.579 239.278L113.669 241.524L121.661 232.908L119.571 230.662L111.579 239.278Z" fill="#007AFF"/>
<path d="M134.691 230.656L132.604 232.905L140.608 241.509L142.695 239.259L134.691 230.656Z" fill="#007AFF"/>
<path d="M132.594 239.271L134.684 241.518L142.676 232.902L140.586 230.656L132.594 239.271Z" fill="#007AFF"/>
<path d="M155.712 230.637L153.625 232.887L161.629 241.491L163.716 239.241L155.712 230.637Z" fill="#007AFF"/>
<path d="M153.624 239.265L155.714 241.512L163.706 232.896L161.616 230.65L153.624 239.265Z" fill="#007AFF"/>
<path d="M71.5713 119.344L69.4844 121.593L77.4879 130.197L79.5749 127.947L71.5713 119.344Z" fill="#007AFF"/>
<path d="M69.4834 127.951L71.5732 130.198L79.5656 121.582L77.4757 119.335L69.4834 127.951Z" fill="#007AFF"/>
<path d="M92.5772 119.343L90.4902 121.593L98.4938 130.196L100.581 127.947L92.5772 119.343Z" fill="#007AFF"/>
<path d="M90.4824 127.945L92.5723 130.191L100.565 121.576L98.4748 119.329L90.4824 127.945Z" fill="#007AFF"/>
<path d="M113.598 119.325L111.511 121.574L119.514 130.178L121.601 127.928L113.598 119.325Z" fill="#007AFF"/>
<path d="M111.513 127.938L113.603 130.185L121.595 121.569L119.505 119.323L111.513 127.938Z" fill="#007AFF"/>
<path d="M134.614 119.294L132.527 121.544L140.531 130.147L142.618 127.898L134.614 119.294Z" fill="#007AFF"/>
<path d="M132.516 127.92L134.605 130.167L142.598 121.551L140.508 119.305L132.516 127.92Z" fill="#007AFF"/>
<path d="M155.646 119.288L153.559 121.538L161.562 130.141L163.649 127.892L155.646 119.288Z" fill="#007AFF"/>
<path d="M153.54 127.901L155.63 130.148L163.622 121.532L161.532 119.286L153.54 127.901Z" fill="#007AFF"/>
<path d="M71.5831 142.106L69.4961 144.356L77.4996 152.959L79.5866 150.71L71.5831 142.106Z" fill="#007AFF"/>
<path d="M69.4834 150.718L71.5732 152.965L79.5656 144.349L77.4757 142.102L69.4834 150.718Z" fill="#007AFF"/>
<path d="M92.6045 142.088L90.5176 144.338L98.5211 152.941L100.608 150.692L92.6045 142.088Z" fill="#007AFF"/>
<path d="M90.5146 150.712L92.6045 152.959L100.597 144.343L98.507 142.096L90.5146 150.712Z" fill="#007AFF"/>
<path d="M113.608 142.087L111.521 144.336L119.525 152.94L121.612 150.69L113.608 142.087Z" fill="#007AFF"/>
<path d="M111.512 150.706L113.602 152.953L121.594 144.337L119.504 142.09L111.512 150.706Z" fill="#007AFF"/>
<path d="M134.643 142.038L132.556 144.288L140.559 152.892L142.646 150.642L134.643 142.038Z" fill="#007AFF"/>
<path d="M132.532 150.67L134.622 152.916L142.614 144.301L140.525 142.054L132.532 150.67Z" fill="#007AFF"/>
<path d="M155.646 142.021L153.559 144.27L161.562 152.874L163.649 150.624L155.646 142.021Z" fill="#007AFF"/>
<path d="M153.562 150.664L155.652 152.91L163.645 144.294L161.555 142.048L153.562 150.664Z" fill="#007AFF"/>
<path d="M71.5928 163.285L69.5059 165.535L77.5094 174.139L79.5964 171.889L71.5928 163.285Z" fill="#007AFF"/>
<path d="M69.5068 171.897L71.5967 174.144L79.5891 165.528L77.4992 163.281L69.5068 171.897Z" fill="#007AFF"/>
<path d="M92.6094 163.255L90.5225 165.505L98.526 174.108L100.613 171.859L92.6094 163.255Z" fill="#007AFF"/>
<path d="M90.5088 171.879L92.5986 174.125L100.591 165.51L98.5011 163.263L90.5088 171.879Z" fill="#007AFF"/>
<path d="M113.63 163.237L111.543 165.486L119.547 174.09L121.633 171.84L113.63 163.237Z" fill="#007AFF"/>
<path d="M111.524 171.873L113.614 174.12L121.607 165.504L119.517 163.257L111.524 171.873Z" fill="#007AFF"/>
<path d="M134.636 163.219L132.549 165.468L140.552 174.072L142.639 171.822L134.636 163.219Z" fill="#007AFF"/>
<path d="M132.571 171.849L134.661 174.096L142.654 165.48L140.564 163.233L132.571 171.849Z" fill="#007AFF"/>
<path d="M155.667 163.205L153.58 165.455L161.584 174.058L163.671 171.809L155.667 163.205Z" fill="#007AFF"/>
<path d="M153.573 171.83L155.663 174.077L163.655 165.461L161.566 163.215L153.573 171.83Z" fill="#007AFF"/>
<path d="M71.5157 51.9239L69.4287 54.1736L77.4323 62.7772L79.5192 60.5275L71.5157 51.9239Z" fill="#007AFF"/>
<path d="M69.4287 60.5468L71.5186 62.7933L79.5109 54.1777L77.4211 51.9311L69.4287 60.5468Z" fill="#007AFF"/>
<path d="M92.5323 51.893L90.4453 54.1427L98.4489 62.7464L100.536 60.4966L92.5323 51.893Z" fill="#007AFF"/>
<path d="M90.4482 60.5273L92.5381 62.7739L100.53 54.1582L98.4406 51.9117L90.4482 60.5273Z" fill="#007AFF"/>
<path d="M113.565 51.887L111.478 54.1367L119.481 62.7404L121.568 60.4907L113.565 51.887Z" fill="#007AFF"/>
<path d="M111.474 60.5087L113.563 62.7552L121.556 54.1396L119.466 51.893L111.474 60.5087Z" fill="#007AFF"/>
<path d="M134.585 51.8866L132.498 54.1364L140.502 62.74L142.589 60.4903L134.585 51.8866Z" fill="#007AFF"/>
<path d="M132.504 60.4854L134.594 62.7319L142.586 54.1163L140.496 51.8697L132.504 60.4854Z" fill="#007AFF"/>
<path d="M155.59 51.868L153.503 54.1177L161.506 62.7213L163.593 60.4716L155.59 51.868Z" fill="#007AFF"/>
<path d="M153.519 60.4785L155.609 62.7251L163.602 54.1094L161.512 51.8628L153.519 60.4785Z" fill="#007AFF"/>
<path d="M71.5274 74.6685L69.4404 76.9182L77.444 85.5219L79.5309 83.2722L71.5274 74.6685Z" fill="#007AFF"/>
<path d="M69.4453 83.2959L71.5352 85.5425L79.5275 76.9268L77.4377 74.6802L69.4453 83.2959Z" fill="#007AFF"/>
<path d="M92.5489 74.668L90.4619 76.9177L98.4655 85.5214L100.552 83.2717L92.5489 74.668Z" fill="#007AFF"/>
<path d="M90.4765 83.2905L92.5664 85.5371L100.559 76.9214L98.4689 74.6749L90.4765 83.2905Z" fill="#007AFF"/>
<path d="M113.581 74.6365L111.494 76.8862L119.498 85.4899L121.585 83.2402L113.581 74.6365Z" fill="#007AFF"/>
<path d="M111.478 83.2708L113.568 85.5173L121.561 76.9017L119.471 74.6551L111.478 83.2708Z" fill="#007AFF"/>
<path d="M134.598 74.6307L132.511 76.8804L140.514 85.484L142.601 83.2343L134.598 74.6307Z" fill="#007AFF"/>
<path d="M132.505 83.2524L134.595 85.499L142.587 76.8833L140.497 74.6368L132.505 83.2524Z" fill="#007AFF"/>
<path d="M155.617 74.6304L153.53 76.8801L161.534 85.4838L163.621 83.2341L155.617 74.6304Z" fill="#007AFF"/>
<path d="M153.535 83.2461L155.625 85.4927L163.617 76.877L161.528 74.6304L153.535 83.2461Z" fill="#007AFF"/>
<path d="M71.5489 95.8538L69.4619 98.1035L77.4655 106.707L79.5524 104.457L71.5489 95.8538Z" fill="#007AFF"/>
<path d="M69.456 104.463L71.5459 106.709L79.5383 98.0938L77.4484 95.8472L69.456 104.463Z" fill="#007AFF"/>
<path d="M92.5704 95.8345L90.4834 98.0842L98.4869 106.688L100.574 104.438L92.5704 95.8345Z" fill="#007AFF"/>
<path d="M90.4882 104.457L92.5781 106.703L100.571 98.0874L98.4806 95.8409L90.4882 104.457Z" fill="#007AFF"/>
<path d="M113.575 95.816L111.488 98.0657L119.492 106.669L121.579 104.42L113.575 95.816Z" fill="#007AFF"/>
<path d="M111.503 104.45L113.593 106.696L121.585 98.0806L119.495 95.834L111.503 104.45Z" fill="#007AFF"/>
<path d="M134.607 95.803L132.521 98.0527L140.524 106.656L142.611 104.407L134.607 95.803Z" fill="#007AFF"/>
<path d="M132.505 104.432L134.595 106.678L142.587 98.0624L140.497 95.8158L132.505 104.432Z" fill="#007AFF"/>
<path d="M155.622 95.7973L153.535 98.047L161.539 106.651L163.626 104.401L155.622 95.7973Z" fill="#007AFF"/>
<path d="M153.546 104.396L155.636 106.642L163.628 98.0265L161.538 95.78L153.546 104.396Z" fill="#007AFF"/>
<path d="M174.656 254.12L172.569 256.369L180.573 264.973L182.66 262.723L174.656 254.12Z" fill="#007AFF"/>
<path d="M172.565 262.738L174.655 264.985L182.648 256.369L180.558 254.123L172.565 262.738Z" fill="#007AFF"/>
<path d="M195.677 254.102L193.59 256.351L201.593 264.955L203.68 262.705L195.677 254.102Z" fill="#007AFF"/>
<path d="M193.597 262.732L195.687 264.979L203.679 256.363L201.589 254.116L193.597 262.732Z" fill="#007AFF"/>
<path d="M216.722 254.101L214.635 256.351L222.638 264.954L224.725 262.705L216.722 254.101Z" fill="#007AFF"/>
<path d="M214.611 262.701L216.701 264.948L224.694 256.332L222.604 254.085L214.611 262.701Z" fill="#007AFF"/>
<path d="M237.724 254.083L235.637 256.333L243.64 264.937L245.727 262.687L237.724 254.083Z" fill="#007AFF"/>
<path d="M235.623 262.695L237.713 264.942L245.705 256.326L243.615 254.08L235.623 262.695Z" fill="#007AFF"/>
<path d="M258.746 254.047L256.659 256.297L264.663 264.9L266.75 262.65L258.746 254.047Z" fill="#007AFF"/>
<path d="M256.673 262.688L258.763 264.935L266.755 256.319L264.665 254.073L256.673 262.688Z" fill="#007AFF"/>
<path d="M174.684 276.882L172.597 279.132L180.6 287.736L182.687 285.486L174.684 276.882Z" fill="#007AFF"/>
<path d="M172.582 285.506L174.672 287.752L182.664 279.137L180.574 276.89L172.582 285.506Z" fill="#007AFF"/>
<path d="M195.688 276.864L193.601 279.113L201.604 287.717L203.691 285.467L195.688 276.864Z" fill="#007AFF"/>
<path d="M193.595 285.499L195.685 287.746L203.677 279.13L201.587 276.884L193.595 285.499Z" fill="#007AFF"/>
<path d="M216.721 276.833L214.634 279.083L222.637 287.687L224.724 285.437L216.721 276.833Z" fill="#007AFF"/>
<path d="M214.615 285.464L216.705 287.71L224.697 279.094L222.608 276.848L214.615 285.464Z" fill="#007AFF"/>
<path d="M237.751 276.827L235.664 279.077L243.668 287.68L245.755 285.431L237.751 276.827Z" fill="#007AFF"/>
<path d="M235.656 285.444L237.746 287.691L245.738 279.075L243.649 276.829L235.656 285.444Z" fill="#007AFF"/>
<path d="M258.757 276.827L256.67 279.076L264.673 287.68L266.76 285.43L258.757 276.827Z" fill="#007AFF"/>
<path d="M256.671 285.438L258.761 287.685L266.753 279.069L264.663 276.823L256.671 285.438Z" fill="#007AFF"/>
<path d="M174.688 298.067L172.601 300.317L180.604 308.92L182.691 306.671L174.688 298.067Z" fill="#007AFF"/>
<path d="M172.593 306.672L174.683 308.919L182.675 300.303L180.585 298.056L172.593 306.672Z" fill="#007AFF"/>
<path d="M195.709 298.032L193.622 300.281L201.626 308.885L203.713 306.635L195.709 298.032Z" fill="#007AFF"/>
<path d="M193.607 306.666L195.697 308.913L203.69 300.297L201.6 298.051L193.607 306.666Z" fill="#007AFF"/>
<path d="M216.731 297.996L214.644 300.245L222.647 308.849L224.734 306.599L216.731 297.996Z" fill="#007AFF"/>
<path d="M214.655 306.643L216.745 308.889L224.737 300.274L222.648 298.027L214.655 306.643Z" fill="#007AFF"/>
<path d="M237.745 297.983L235.658 300.233L243.662 308.836L245.749 306.587L237.745 297.983Z" fill="#007AFF"/>
<path d="M235.656 306.625L237.746 308.871L245.738 300.256L243.649 298.009L235.656 306.625Z" fill="#007AFF"/>
<path d="M258.778 297.995L256.691 300.244L264.695 308.848L266.782 306.598L258.778 297.995Z" fill="#007AFF"/>
<path d="M256.666 306.606L258.756 308.852L266.748 300.237L264.658 297.99L256.666 306.606Z" fill="#007AFF"/>
<path d="M174.626 186.67L172.539 188.919L180.543 197.523L182.63 195.273L174.626 186.67Z" fill="#007AFF"/>
<path d="M172.53 195.32L174.62 197.567L182.612 188.951L180.523 186.705L172.53 195.32Z" fill="#007AFF"/>
<path d="M195.644 186.681L193.557 188.931L201.56 197.535L203.647 195.285L195.644 186.681Z" fill="#007AFF"/>
<path d="M193.558 195.284L195.647 197.531L203.64 188.915L201.55 186.668L193.558 195.284Z" fill="#007AFF"/>
<path d="M216.664 186.663L214.577 188.913L222.581 197.517L224.668 195.267L216.664 186.663Z" fill="#007AFF"/>
<path d="M214.555 195.296L216.645 197.542L224.637 188.927L222.547 186.68L214.555 195.296Z" fill="#007AFF"/>
<path d="M237.668 186.645L235.581 188.895L243.585 197.498L245.672 195.249L237.668 186.645Z" fill="#007AFF"/>
<path d="M235.585 195.272L237.675 197.519L245.667 188.903L243.577 186.657L235.585 195.272Z" fill="#007AFF"/>
<path d="M258.701 186.631L256.614 188.881L264.618 197.485L266.705 195.235L258.701 186.631Z" fill="#007AFF"/>
<path d="M256.604 195.254L258.694 197.5L266.687 188.885L264.597 186.638L256.604 195.254Z" fill="#007AFF"/>
<path d="M174.626 209.445L172.539 211.695L180.543 220.298L182.63 218.049L174.626 209.445Z" fill="#007AFF"/>
<path d="M172.542 218.083L174.632 220.329L182.624 211.713L180.534 209.467L172.542 218.083Z" fill="#007AFF"/>
<path d="M195.659 209.431L193.572 211.68L201.576 220.284L203.663 218.034L195.659 209.431Z" fill="#007AFF"/>
<path d="M193.561 218.063L195.651 220.31L203.644 211.694L201.554 209.448L193.561 218.063Z" fill="#007AFF"/>
<path d="M216.674 209.425L214.587 211.675L222.59 220.278L224.677 218.029L216.674 209.425Z" fill="#007AFF"/>
<path d="M214.586 218.045L216.676 220.292L224.668 211.676L222.578 209.429L214.586 218.045Z" fill="#007AFF"/>
<path d="M237.694 209.407L235.607 211.657L243.611 220.26L245.698 218.011L237.694 209.407Z" fill="#007AFF"/>
<path d="M235.601 218.039L237.69 220.286L245.683 211.67L243.593 209.424L235.601 218.039Z" fill="#007AFF"/>
<path d="M258.715 209.376L256.628 211.625L264.631 220.229L266.718 217.979L258.715 209.376Z" fill="#007AFF"/>
<path d="M256.622 218.003L258.712 220.25L266.704 211.634L264.614 209.387L256.622 218.003Z" fill="#007AFF"/>
<path d="M174.648 230.629L172.562 232.879L180.565 241.483L182.652 239.233L174.648 230.629Z" fill="#007AFF"/>
<path d="M172.538 239.25L174.628 241.496L182.62 232.881L180.53 230.634L172.538 239.25Z" fill="#007AFF"/>
<path d="M195.664 230.599L193.577 232.848L201.581 241.452L203.668 239.202L195.664 230.599Z" fill="#007AFF"/>
<path d="M193.557 239.231L195.646 241.477L203.639 232.862L201.549 230.615L193.557 239.231Z" fill="#007AFF"/>
<path d="M216.697 230.593L214.61 232.843L222.614 241.446L224.701 239.196L216.697 230.593Z" fill="#007AFF"/>
<path d="M214.599 239.213L216.688 241.459L224.681 232.843L222.591 230.597L214.599 239.213Z" fill="#007AFF"/>
<path d="M237.7 230.574L235.613 232.824L243.617 241.428L245.704 239.178L237.7 230.574Z" fill="#007AFF"/>
<path d="M235.612 239.207L237.702 241.453L245.695 232.838L243.605 230.591L235.612 239.207Z" fill="#007AFF"/>
<path d="M258.723 230.556L256.636 232.806L264.639 241.41L266.726 239.16L258.723 230.556Z" fill="#007AFF"/>
<path d="M256.644 239.183L258.733 241.429L266.726 232.814L264.636 230.567L256.644 239.183Z" fill="#007AFF"/>
<path d="M174.582 119.28L172.495 121.529L180.499 130.133L182.586 127.883L174.582 119.28Z" fill="#007AFF"/>
<path d="M172.487 127.886L174.577 130.132L182.57 121.517L180.48 119.27L172.487 127.886Z" fill="#007AFF"/>
<path d="M195.587 119.244L193.5 121.494L201.504 130.098L203.591 127.848L195.587 119.244Z" fill="#007AFF"/>
<path d="M193.502 127.88L195.592 130.127L203.584 121.511L201.494 119.265L193.502 127.88Z" fill="#007AFF"/>
<path d="M216.619 119.231L214.532 121.48L222.536 130.084L224.623 127.834L216.619 119.231Z" fill="#007AFF"/>
<path d="M214.537 127.861L216.627 130.107L224.619 121.491L222.529 119.245L214.537 127.861Z" fill="#007AFF"/>
<path d="M237.641 119.213L235.554 121.463L243.557 130.066L245.644 127.816L237.641 119.213Z" fill="#007AFF"/>
<path d="M235.552 127.855L237.642 130.101L245.634 121.486L243.544 119.239L235.552 127.855Z" fill="#007AFF"/>
<path d="M258.661 119.211L256.574 121.461L264.578 130.064L266.665 127.815L258.661 119.211Z" fill="#007AFF"/>
<path d="M256.549 127.849L258.639 130.095L266.631 121.479L264.541 119.233L256.549 127.849Z" fill="#007AFF"/>
<path d="M174.595 142.024L172.508 144.274L180.511 152.878L182.598 150.628L174.595 142.024Z" fill="#007AFF"/>
<path d="M172.504 150.653L174.594 152.9L182.586 144.284L180.496 142.037L172.504 150.653Z" fill="#007AFF"/>
<path d="M195.614 142.006L193.527 144.256L201.531 152.86L203.618 150.61L195.614 142.006Z" fill="#007AFF"/>
<path d="M193.533 150.629L195.623 152.876L203.615 144.26L201.526 142.014L193.533 150.629Z" fill="#007AFF"/>
<path d="M216.636 142.005L214.549 144.255L222.552 152.859L224.639 150.609L216.636 142.005Z" fill="#007AFF"/>
<path d="M214.532 150.623L216.622 152.87L224.614 144.254L222.525 142.008L214.532 150.623Z" fill="#007AFF"/>
<path d="M237.652 141.975L235.565 144.224L243.569 152.828L245.656 150.578L237.652 141.975Z" fill="#007AFF"/>
<path d="M235.552 150.604L237.642 152.851L245.634 144.235L243.544 141.989L235.552 150.604Z" fill="#007AFF"/>
<path d="M258.674 141.957L256.587 144.206L264.59 152.81L266.677 150.56L258.674 141.957Z" fill="#007AFF"/>
<path d="M256.582 150.598L258.672 152.845L266.664 144.229L264.574 141.982L256.582 150.598Z" fill="#007AFF"/>
<path d="M174.614 163.193L172.527 165.443L180.531 174.046L182.618 171.796L174.614 163.193Z" fill="#007AFF"/>
<path d="M172.531 171.804L174.621 174.05L182.613 165.434L180.524 163.188L172.531 171.804Z" fill="#007AFF"/>
<path d="M195.637 163.192L193.55 165.441L201.553 174.045L203.64 171.795L195.637 163.192Z" fill="#007AFF"/>
<path d="M193.546 171.797L195.636 174.043L203.628 165.428L201.538 163.181L193.546 171.797Z" fill="#007AFF"/>
<path d="M216.64 163.19L214.553 165.44L222.556 174.044L224.643 171.794L216.64 163.19Z" fill="#007AFF"/>
<path d="M214.543 171.808L216.633 174.055L224.625 165.439L222.535 163.192L214.543 171.808Z" fill="#007AFF"/>
<path d="M237.673 163.142L235.586 165.392L243.589 173.995L245.676 171.746L237.673 163.142Z" fill="#007AFF"/>
<path d="M235.562 171.772L237.652 174.018L245.645 165.403L243.555 163.156L235.562 171.772Z" fill="#007AFF"/>
<path d="M258.679 163.141L256.592 165.391L264.595 173.995L266.682 171.745L258.679 163.141Z" fill="#007AFF"/>
<path d="M256.595 171.765L258.685 174.012L266.677 165.396L264.587 163.149L256.595 171.765Z" fill="#007AFF"/>
<path d="M174.543 51.8598L172.456 54.1095L180.46 62.7132L182.547 60.4634L174.543 51.8598Z" fill="#007AFF"/>
<path d="M172.449 60.4811L174.539 62.7277L182.531 54.112L180.442 51.8654L172.449 60.4811Z" fill="#007AFF"/>
<path d="M195.56 51.8293L193.473 54.079L201.476 62.6826L203.563 60.4329L195.56 51.8293Z" fill="#007AFF"/>
<path d="M193.468 60.4446L195.558 62.6912L203.55 54.0755L201.46 51.8289L193.468 60.4446Z" fill="#007AFF"/>
<path d="M216.564 51.8105L214.477 54.0602L222.48 62.6638L224.567 60.4141L216.564 51.8105Z" fill="#007AFF"/>
<path d="M214.482 60.4384L216.572 62.6849L224.565 54.0693L222.475 51.8227L214.482 60.4384Z" fill="#007AFF"/>
<path d="M237.585 51.7924L235.498 54.0421L243.502 62.6458L245.589 60.3961L237.585 51.7924Z" fill="#007AFF"/>
<path d="M235.514 60.4325L237.604 62.6791L245.596 54.0634L243.506 51.8168L235.514 60.4325Z" fill="#007AFF"/>
<path d="M258.629 51.7912L256.542 54.0409L264.546 62.6446L266.633 60.3948L258.629 51.7912Z" fill="#007AFF"/>
<path d="M256.544 60.3837L258.634 62.6302L266.626 54.0146L264.536 51.768L256.544 60.3837Z" fill="#007AFF"/>
<path d="M174.555 74.6044L172.468 76.8541L180.471 85.4578L182.558 83.2081L174.555 74.6044Z" fill="#007AFF"/>
<path d="M172.465 83.2306L174.555 85.4772L182.547 76.8615L180.457 74.6149L172.465 83.2306Z" fill="#007AFF"/>
<path d="M195.588 74.5907L193.501 76.8405L201.505 85.4441L203.591 83.1944L195.588 74.5907Z" fill="#007AFF"/>
<path d="M193.469 83.2113L195.559 85.4579L203.551 76.8422L201.461 74.5956L193.469 83.2113Z" fill="#007AFF"/>
<path d="M216.575 74.555L214.488 76.8047L222.492 85.4083L224.579 83.1586L216.575 74.555Z" fill="#007AFF"/>
<path d="M214.499 83.2051L216.589 85.4517L224.581 76.836L222.491 74.5894L214.499 83.2051Z" fill="#007AFF"/>
<path d="M237.597 74.5541L235.51 76.8038L243.513 85.4075L245.6 83.1578L237.597 74.5541Z" fill="#007AFF"/>
<path d="M235.53 83.1814L237.62 85.428L245.612 76.8123L243.523 74.5657L235.53 83.1814Z" fill="#007AFF"/>
<path d="M258.617 74.5537L256.53 76.8035L264.534 85.4071L266.621 83.1574L258.617 74.5537Z" fill="#007AFF"/>
<path d="M256.527 83.1936L258.617 85.4402L266.61 76.8245L264.52 74.5779L256.527 83.1936Z" fill="#007AFF"/>
<path d="M174.56 95.7713L172.473 98.021L180.476 106.625L182.563 104.375L174.56 95.7713Z" fill="#007AFF"/>
<path d="M172.478 104.397L174.567 106.643L182.56 98.0278L180.47 95.7812L172.478 104.397Z" fill="#007AFF"/>
<path d="M195.581 95.7708L193.494 98.0205L201.498 106.624L203.585 104.374L195.581 95.7708Z" fill="#007AFF"/>
<path d="M193.491 104.391L195.581 106.638L203.573 98.022L201.484 95.7754L193.491 104.391Z" fill="#007AFF"/>
<path d="M216.597 95.7226L214.51 97.9723L222.513 106.576L224.6 104.326L216.597 95.7226Z" fill="#007AFF"/>
<path d="M214.526 104.355L216.616 106.601L224.609 97.9858L222.519 95.7392L214.526 104.355Z" fill="#007AFF"/>
<path d="M237.618 95.7221L235.531 97.9718L243.535 106.575L245.622 104.326L237.618 95.7221Z" fill="#007AFF"/>
<path d="M235.524 104.349L237.614 106.596L245.607 97.9801L243.517 95.7336L235.524 104.349Z" fill="#007AFF"/>
<path d="M258.64 95.7211L256.553 97.9708L264.556 106.574L266.643 104.325L258.64 95.7211Z" fill="#007AFF"/>
<path d="M256.539 104.36L258.629 106.607L266.621 97.9914L264.531 95.7448L256.539 104.36Z" fill="#007AFF"/>
<path d="M280.994 254.05L278.907 256.3L286.911 264.903L288.998 262.654L280.994 254.05Z" fill="#007AFF"/>
<path d="M278.89 262.653L280.979 264.899L288.972 256.283L286.882 254.037L278.89 262.653Z" fill="#007AFF"/>
<path d="M280.995 276.807L278.908 279.057L286.912 287.66L288.999 285.411L280.995 276.807Z" fill="#007AFF"/>
<path d="M278.901 285.432L280.991 287.679L288.984 279.063L286.894 276.817L278.901 285.432Z" fill="#007AFF"/>
<path d="M281 297.974L278.913 300.224L286.917 308.828L289.004 306.578L281 297.974Z" fill="#007AFF"/>
<path d="M278.913 306.599L281.003 308.846L288.995 300.23L286.905 297.983L278.913 306.599Z" fill="#007AFF"/>
<path d="M280.939 186.612L278.852 188.862L286.855 197.465L288.942 195.216L280.939 186.612Z" fill="#007AFF"/>
<path d="M278.835 195.248L280.925 197.494L288.917 188.878L286.827 186.632L278.835 195.248Z" fill="#007AFF"/>
<path d="M280.95 209.375L278.863 211.624L286.867 220.228L288.954 217.978L280.95 209.375Z" fill="#007AFF"/>
<path d="M278.868 217.998L280.958 220.245L288.95 211.629L286.861 209.382L278.868 217.998Z" fill="#007AFF"/>
<path d="M280.973 230.542L278.886 232.792L286.889 241.396L288.976 239.146L280.973 230.542Z" fill="#007AFF"/>
<path d="M278.88 239.165L280.97 241.412L288.962 232.796L286.872 230.549L278.88 239.165Z" fill="#007AFF"/>
<path d="M280.883 119.192L278.796 121.441L286.799 130.045L288.886 127.795L280.883 119.192Z" fill="#007AFF"/>
<path d="M278.796 127.825L280.886 130.071L288.878 121.456L286.788 119.209L278.796 127.825Z" fill="#007AFF"/>
<path d="M280.895 141.954L278.808 144.204L286.811 152.807L288.898 150.558L280.895 141.954Z" fill="#007AFF"/>
<path d="M278.796 150.592L280.886 152.839L288.878 144.223L286.788 141.976L278.796 150.592Z" fill="#007AFF"/>
<path d="M280.916 163.121L278.829 165.371L286.833 173.975L288.92 171.725L280.916 163.121Z" fill="#007AFF"/>
<path d="M278.808 171.759L280.897 174.005L288.89 165.39L286.8 163.143L278.808 171.759Z" fill="#007AFF"/>
<path d="M280.848 51.7715L278.761 54.0212L286.764 62.6249L288.851 60.3752L280.848 51.7715Z" fill="#007AFF"/>
<path d="M278.755 60.395L280.845 62.6416L288.837 54.0259L286.747 51.7794L278.755 60.395Z" fill="#007AFF"/>
<path d="M280.876 74.5347L278.789 76.7844L286.793 85.3881L288.88 83.1384L280.876 74.5347Z" fill="#007AFF"/>
<path d="M278.771 83.1448L280.861 85.3914L288.854 76.7757L286.764 74.5291L278.771 83.1448Z" fill="#007AFF"/>
<path d="M280.882 95.7022L278.795 97.9519L286.798 106.556L288.885 104.306L280.882 95.7022Z" fill="#007AFF"/>
<path d="M278.783 104.312L280.873 106.559L288.865 97.9429L286.776 95.6963L278.783 104.312Z" fill="#007AFF"/>
</g>
</svg>
