<svg width="38" height="38" viewBox="0 0 38 38" fill="none" xmlns="http://www.w3.org/2000/svg">
<path fill-rule="evenodd" clip-rule="evenodd" d="M31.6618 14.345L32.7615 15.4443C33.6322 16.2993 34.1057 17.4597 34.1057 18.6812C34.121 19.9027 33.6475 21.0646 32.7921 21.9334C32.7819 21.9445 32.7717 21.9544 32.7615 21.9642C32.7564 21.9691 32.7514 21.9741 32.7462 21.9792L31.6618 23.0632C31.2342 23.4907 30.9897 24.0709 30.9897 24.6832V26.2543C30.9897 28.7888 28.9277 30.8516 26.3923 30.8516H24.8192C24.2081 30.8516 23.6278 31.0943 23.2001 31.5219L22.1003 32.6212C21.1992 33.5235 20.0231 33.9648 18.847 33.9648C17.671 33.9648 16.4949 33.5235 15.5937 32.638L14.4787 31.5219C14.051 31.0943 13.4706 30.8516 12.8597 30.8516H11.2865C8.75102 30.8516 6.68905 28.7888 6.68905 26.2543V24.6832C6.68905 24.0709 6.44467 23.4907 6.017 23.0479L4.91728 21.9639C3.13023 20.179 3.11497 17.2612 4.902 15.4611L6.017 14.345C6.44467 13.9175 6.68905 13.3373 6.68905 12.7113V11.1539C6.68905 8.61936 8.75102 6.55966 11.2865 6.55966H12.8597C13.4706 6.55966 14.051 6.31384 14.4787 5.88632L15.5784 4.787C17.3655 2.98687 20.2828 2.98687 22.0851 4.77326L23.2001 5.88632C23.6278 6.31384 24.2081 6.55966 24.8192 6.55966H26.3923C28.9277 6.55966 30.9897 8.61936 30.9897 11.1539V12.7281C30.9897 13.3373 31.2342 13.9175 31.6618 14.345ZM14.9064 23.964C15.273 23.964 15.609 23.8266 15.8533 23.5671L23.7041 15.7207C24.2234 15.2015 24.2234 14.345 23.7041 13.8259C23.1849 13.3083 22.3448 13.3083 21.8255 13.8259L13.9747 21.6738C13.4554 22.1929 13.4554 23.0479 13.9747 23.5671C14.2191 23.8266 14.5551 23.964 14.9064 23.964ZM21.4284 22.6204C21.4284 23.3686 22.024 23.964 22.7725 23.964C23.5055 23.964 24.1013 23.3686 24.1013 22.6204C24.1013 21.8891 23.5055 21.2921 22.7725 21.2921C22.024 21.2921 21.4284 21.8891 21.4284 22.6204ZM14.9217 13.4441C15.6548 13.4441 16.2504 14.0396 16.2504 14.7725C16.2504 15.5222 15.6548 16.1161 14.9217 16.1161C14.1885 16.1161 13.5776 15.5222 13.5776 14.7725C13.5776 14.0396 14.1885 13.4441 14.9217 13.4441Z" fill="#FF0D07"/>
</svg>
