<svg width="186" height="199" viewBox="0 0 186 199" fill="none" xmlns="http://www.w3.org/2000/svg">
<path d="M94.979 0.0439453H90.7598V11.3988H94.979V0.0439453Z" fill="#FF0D07"/>
<path d="M94.979 0.0439453H90.7598V11.3988H94.979V0.0439453Z" fill="#FF0D07"/>
<path d="M94.979 187.417H90.7598V198.771H94.979V187.417Z" fill="#FF0D07"/>
<path d="M11.1136 97.1371H0.56543V101.679H11.1136V97.1371Z" fill="#FF0D07"/>
<path d="M11.1136 97.1371H0.56543V101.679H11.1136V97.1371Z" fill="#FF0D07"/>
<path d="M185.173 97.1371H174.625V101.679H185.173V97.1371Z" fill="#FF0D07"/>
<path d="M29.1055 27.5409L26.1221 30.7526L33.5807 38.7817L36.5642 35.57L29.1055 27.5409Z" fill="#FF0D07"/>
<path d="M29.1055 27.5409L26.1221 30.7526L33.5807 38.7817L36.5642 35.57L29.1055 27.5409Z" fill="#FF0D07"/>
<path d="M152.168 160.043L149.185 163.255L156.643 171.284L159.627 168.072L152.168 160.043Z" fill="#FF0D07"/>
<path d="M33.5716 160.028L26.1143 168.058L29.0982 171.269L36.5556 163.239L33.5716 160.028Z" fill="#FF0D07"/>
<path d="M33.5716 160.028L26.1143 168.058L29.0982 171.269L36.5556 163.239L33.5716 160.028Z" fill="#FF0D07"/>
<path d="M156.646 27.536L149.188 35.5665L152.172 38.7776L159.63 30.7471L156.646 27.536Z" fill="#FF0D07"/>
<path d="M73.8925 2.14289L69.7842 3.17773L72.1875 14.234L76.2958 13.1991L73.8925 2.14289Z" fill="#FF0D07"/>
<path d="M73.8925 2.14289L69.7842 3.17773L72.1875 14.234L76.2958 13.1991L73.8925 2.14289Z" fill="#FF0D07"/>
<path d="M113.557 184.594L109.449 185.628L111.853 196.685L115.961 195.65L113.557 184.594Z" fill="#FF0D07"/>
<path d="M12.7923 117.248L2.52246 119.839L3.48521 124.261L13.7551 121.671L12.7923 117.248Z" fill="#FF0D07"/>
<path d="M12.7923 117.248L2.52246 119.839L3.48521 124.261L13.7551 121.671L12.7923 117.248Z" fill="#FF0D07"/>
<path d="M182.269 74.5648L171.999 77.1538L172.961 81.5761L183.231 78.9871L182.269 74.5648Z" fill="#FF0D07"/>
<path d="M15.5645 45.0774L13.3398 48.9368L22.3027 54.9236L24.5273 51.0643L15.5645 45.0774Z" fill="#FF0D07"/>
<path d="M15.5645 45.0774L13.3398 48.9368L22.3027 54.9236L24.5273 51.0643L15.5645 45.0774Z" fill="#FF0D07"/>
<path d="M163.445 143.878L161.221 147.737L170.184 153.724L172.408 149.865L163.445 143.878Z" fill="#FF0D07"/>
<path d="M47.9781 172.977L42.415 182.624L45.9998 185.02L51.5629 175.372L47.9781 172.977Z" fill="#FF0D07"/>
<path d="M47.9781 172.977L42.415 182.624L45.9998 185.02L51.5629 175.372L47.9781 172.977Z" fill="#FF0D07"/>
<path d="M139.741 13.779L134.178 23.4263L137.762 25.8217L143.326 16.1744L139.741 13.779Z" fill="#FF0D07"/>
<path d="M60.7859 6.1998L56.8643 7.87549L60.7558 18.4293L64.6774 16.7536L60.7859 6.1998Z" fill="#FF0D07"/>
<path d="M60.7859 6.1998L56.8643 7.87549L60.7558 18.4293L64.6774 16.7536L60.7859 6.1998Z" fill="#FF0D07"/>
<path d="M124.987 180.369L121.065 182.044L124.957 192.598L128.879 190.923L124.987 180.369Z" fill="#FF0D07"/>
<path d="M16.0989 129.75L6.29492 133.939L7.85155 138.16L17.6556 133.971L16.0989 129.75Z" fill="#FF0D07"/>
<path d="M16.0989 129.75L6.29492 133.939L7.85155 138.16L17.6556 133.971L16.0989 129.75Z" fill="#FF0D07"/>
<path d="M177.893 60.6379L168.089 64.8271L169.646 69.0487L179.45 64.8595L177.893 60.6379Z" fill="#FF0D07"/>
<path d="M8.97179 57.93L7.29883 62.0996L16.9823 66.6019L18.6553 62.4322L8.97179 57.93Z" fill="#FF0D07"/>
<path d="M8.97179 57.93L7.29883 62.0996L16.9823 66.6019L18.6553 62.4322L8.97179 57.93Z" fill="#FF0D07"/>
<path d="M168.781 132.228L167.108 136.397L176.792 140.9L178.465 136.73L168.781 132.228Z" fill="#FF0D07"/>
<path d="M58.5372 179.321L54.3564 189.746L58.2301 191.546L62.4109 181.121L58.5372 179.321Z" fill="#FF0D07"/>
<path d="M58.5372 179.321L54.3564 189.746L58.2301 191.546L62.4109 181.121L58.5372 179.321Z" fill="#FF0D07"/>
<path d="M127.52 7.28614L123.339 17.7111L127.213 19.5112L131.393 9.08633L127.52 7.28614Z" fill="#FF0D07"/>
<path d="M41.9032 16.5392L38.4395 19.1327L44.4624 28.4545L47.9262 25.861L41.9032 16.5392Z" fill="#FF0D07"/>
<path d="M41.9032 16.5392L38.4395 19.1327L44.4624 28.4545L47.9262 25.861L41.9032 16.5392Z" fill="#FF0D07"/>
<path d="M141.291 170.353L137.827 172.946L143.85 182.268L147.314 179.674L141.291 170.353Z" fill="#FF0D07"/>
<path d="M24.553 147.789L15.8936 154.272L18.3028 158.001L26.9622 151.518L24.553 147.789Z" fill="#FF0D07"/>
<path d="M24.553 147.789L15.8936 154.272L18.3028 158.001L26.9622 151.518L24.553 147.789Z" fill="#FF0D07"/>
<path d="M167.45 40.8231L158.791 47.3068L161.2 51.0355L169.86 44.5518L167.45 40.8231Z" fill="#FF0D07"/>
<path d="M2.39025 79.6041L1.64453 84.0746L12.0266 86.0815L12.7723 81.611L2.39025 79.6041Z" fill="#FF0D07"/>
<path d="M2.39025 79.6041L1.64453 84.0746L12.0266 86.0815L12.7723 81.611L2.39025 79.6041Z" fill="#FF0D07"/>
<path d="M173.725 112.731L172.979 117.201L183.362 119.208L184.107 114.738L173.725 112.731Z" fill="#FF0D07"/>
<path d="M76.3556 185.627L74.4932 196.804L78.6461 197.606L80.5086 186.429L76.3556 185.627Z" fill="#FF0D07"/>
<path d="M76.3556 185.627L74.4932 196.804L78.6461 197.606L80.5086 186.429L76.3556 185.627Z" fill="#FF0D07"/>
<path d="M107.102 1.19951L105.239 12.376L109.392 13.1779L111.255 2.00148L107.102 1.19951Z" fill="#FF0D07"/>
</svg>
