<svg width="37" height="38" viewBox="0 0 37 38" fill="none" xmlns="http://www.w3.org/2000/svg">
<path d="M14.2759 11.9656C13.4208 11.9656 12.749 12.6527 12.749 13.4924C12.749 14.3322 13.4361 15.0192 14.2759 15.0192C15.1156 15.0192 15.8026 14.3322 15.8026 13.4924C15.8026 12.6527 15.1156 11.9656 14.2759 11.9656Z" fill="#FF3B30"/>
<path d="M27.7433 29.5873C28.0792 29.9232 28.0334 30.4729 27.6211 30.7019C26.2775 31.45 24.6438 31.8317 22.7352 31.8317H9.94042C9.49764 31.8317 9.31442 31.3126 9.61978 31.0072L18.8418 21.7852C19.1472 21.4798 19.6205 21.4798 19.9259 21.7852L27.7433 29.5873Z" fill="#FF3B30"/>
<path d="M31.6102 10.1649V22.9597C31.6102 24.8683 31.2285 26.5173 30.4803 27.8456C30.2513 28.2578 29.7016 28.2884 29.3657 27.9677L21.5484 20.1504C21.243 19.845 21.243 19.3717 21.5484 19.0663L30.7704 9.84427C31.0911 9.5389 31.6102 9.72212 31.6102 10.1649Z" fill="#FF3B30"/>
<path d="M30.0198 5.1738C28.7372 2.19647 25.9126 0.532227 21.9734 0.532227H9.17851C4.27738 0.532227 0.307617 4.50199 0.307617 9.40312V22.198C0.307617 26.1372 1.97186 28.9618 4.94919 30.2444C5.23929 30.3665 5.57519 30.2902 5.78895 30.0764L29.8518 6.01356C30.0809 5.78453 30.1572 5.44863 30.0198 5.1738ZM13.3315 16.167C12.736 16.7472 11.9573 17.022 11.1787 17.022C10.4 17.022 9.6213 16.7319 9.02583 16.167C7.46846 14.7012 5.75841 12.3652 6.41495 9.58634C6.99514 7.06707 9.22432 5.93721 11.1787 5.93721C13.133 5.93721 15.3622 7.06707 15.9424 9.60161C16.5837 12.3652 14.8736 14.7012 13.3315 16.167Z" fill="#FF3B30"/>
</svg>
