<svg width="217" height="1530" viewBox="0 0 217 1530" fill="none" xmlns="http://www.w3.org/2000/svg">
<g filter="url(#filter0_d_265_211)">
<g filter="url(#filter1_d_265_211)">
<circle cx="104.807" cy="100.984" r="46.7211" fill="white"/>
<path d="M94.7295 100.068C94.2235 100.068 93.8134 100.478 93.8134 100.984C93.8134 101.49 94.2235 101.9 94.7295 101.9L94.7295 100.068ZM114.615 101.632C114.973 101.274 114.973 100.694 114.615 100.336L108.785 94.5063C108.428 94.1486 107.848 94.1486 107.49 94.5063C107.132 94.8641 107.132 95.4441 107.49 95.8019L112.672 100.984L107.49 106.166C107.132 106.524 107.132 107.104 107.49 107.462C107.848 107.82 108.428 107.82 108.785 107.462L114.615 101.632ZM94.7295 101.9L113.968 101.9L113.968 100.068L94.7295 100.068L94.7295 101.9Z" fill="black"/>
</g>
<g filter="url(#filter2_d_265_211)">
<circle cx="106.639" cy="761.492" r="46.7211" fill="white"/>
<path d="M96.5615 760.576C96.0556 760.576 95.6454 760.986 95.6454 761.492C95.6454 761.998 96.0556 762.408 96.5615 762.408L96.5615 760.576ZM116.447 762.14C116.805 761.782 116.805 761.202 116.447 760.844L110.617 755.014C110.26 754.656 109.68 754.656 109.322 755.014C108.964 755.372 108.964 755.952 109.322 756.31L114.504 761.492L109.322 766.674C108.964 767.032 108.964 767.612 109.322 767.97C109.68 768.328 110.26 768.328 110.617 767.97L116.447 762.14ZM96.5615 762.408L115.8 762.408L115.8 760.576L96.5615 760.576L96.5615 762.408Z" fill="black"/>
</g>
<g filter="url(#filter3_d_265_211)">
<circle cx="112.136" cy="1422" r="46.7211" fill="white"/>
<path d="M102.06 1421.08C101.554 1421.08 101.143 1421.49 101.143 1422C101.143 1422.51 101.554 1422.92 102.06 1422.92L102.06 1421.08ZM121.945 1422.65C122.303 1422.29 122.303 1421.71 121.945 1421.35L116.115 1415.52C115.758 1415.16 115.178 1415.16 114.82 1415.52C114.462 1415.88 114.462 1416.46 114.82 1416.82L120.002 1422L114.82 1427.18C114.462 1427.54 114.462 1428.12 114.82 1428.48C115.178 1428.84 115.758 1428.84 116.115 1428.48L121.945 1422.65ZM102.06 1422.92L121.298 1422.92L121.298 1421.08L102.06 1421.08L102.06 1422.92Z" fill="black"/>
</g>
</g>
<defs>
<filter id="filter0_d_265_211" x="0.646496" y="0.487896" width="215.65" height="1529.34" filterUnits="userSpaceOnUse" color-interpolation-filters="sRGB">
<feFlood flood-opacity="0" result="BackgroundImageFix"/>
<feColorMatrix in="SourceAlpha" type="matrix" values="0 0 0 0 0 0 0 0 0 0 0 0 0 0 0 0 0 0 127 0" result="hardAlpha"/>
<feOffset dy="3.6644"/>
<feGaussianBlur stdDeviation="28.7197"/>
<feComposite in2="hardAlpha" operator="out"/>
<feColorMatrix type="matrix" values="0 0 0 0 0 0 0 0 0 0 0 0 0 0 0 0 0 0 0.25 0"/>
<feBlend mode="normal" in2="BackgroundImageFix" result="effect1_dropShadow_265_211"/>
<feBlend mode="normal" in="SourceGraphic" in2="effect1_dropShadow_265_211" result="shape"/>
</filter>
<filter id="filter1_d_265_211" x="51.9481" y="49.9573" width="111.215" height="111.214" filterUnits="userSpaceOnUse" color-interpolation-filters="sRGB">
<feFlood flood-opacity="0" result="BackgroundImageFix"/>
<feColorMatrix in="SourceAlpha" type="matrix" values="0 0 0 0 0 0 0 0 0 0 0 0 0 0 0 0 0 0 127 0" result="hardAlpha"/>
<feOffset dx="2.7483" dy="4.5805"/>
<feGaussianBlur stdDeviation="4.44308"/>
<feComposite in2="hardAlpha" operator="out"/>
<feColorMatrix type="matrix" values="0 0 0 0 0 0 0 0 0 0 0 0 0 0 0 0 0 0 0.25 0"/>
<feBlend mode="normal" in2="BackgroundImageFix" result="effect1_dropShadow_265_211"/>
<feBlend mode="normal" in="SourceGraphic" in2="effect1_dropShadow_265_211" result="shape"/>
</filter>
<filter id="filter2_d_265_211" x="53.7801" y="710.465" width="111.215" height="111.214" filterUnits="userSpaceOnUse" color-interpolation-filters="sRGB">
<feFlood flood-opacity="0" result="BackgroundImageFix"/>
<feColorMatrix in="SourceAlpha" type="matrix" values="0 0 0 0 0 0 0 0 0 0 0 0 0 0 0 0 0 0 127 0" result="hardAlpha"/>
<feOffset dx="2.7483" dy="4.5805"/>
<feGaussianBlur stdDeviation="4.44308"/>
<feComposite in2="hardAlpha" operator="out"/>
<feColorMatrix type="matrix" values="0 0 0 0 0 0 0 0 0 0 0 0 0 0 0 0 0 0 0.25 0"/>
<feBlend mode="normal" in2="BackgroundImageFix" result="effect1_dropShadow_265_211"/>
<feBlend mode="normal" in="SourceGraphic" in2="effect1_dropShadow_265_211" result="shape"/>
</filter>
<filter id="filter3_d_265_211" x="59.2772" y="1370.97" width="111.215" height="111.214" filterUnits="userSpaceOnUse" color-interpolation-filters="sRGB">
<feFlood flood-opacity="0" result="BackgroundImageFix"/>
<feColorMatrix in="SourceAlpha" type="matrix" values="0 0 0 0 0 0 0 0 0 0 0 0 0 0 0 0 0 0 127 0" result="hardAlpha"/>
<feOffset dx="2.7483" dy="4.5805"/>
<feGaussianBlur stdDeviation="4.44308"/>
<feComposite in2="hardAlpha" operator="out"/>
<feColorMatrix type="matrix" values="0 0 0 0 0 0 0 0 0 0 0 0 0 0 0 0 0 0 0.25 0"/>
<feBlend mode="normal" in2="BackgroundImageFix" result="effect1_dropShadow_265_211"/>
<feBlend mode="normal" in="SourceGraphic" in2="effect1_dropShadow_265_211" result="shape"/>
</filter>
</defs>
</svg>
