<svg width="45" height="45" viewBox="0 0 45 45" fill="none" xmlns="http://www.w3.org/2000/svg">
<path fill-rule="evenodd" clip-rule="evenodd" d="M7.11035 19.3914C7.11035 10.9634 14.1531 4.15149 22.6719 4.15149C31.2149 4.15149 38.2577 10.9634 38.2577 19.3914C38.2577 23.6382 36.7132 27.5809 34.171 30.9229C31.3665 34.6091 27.9098 37.8209 24.0188 40.3418C23.1284 40.9245 22.3247 40.9684 21.3473 40.3418C17.4343 37.8209 13.9776 34.6091 11.1971 30.9229C8.65303 27.5809 7.11035 23.6382 7.11035 19.3914ZM17.5433 19.8659C17.5433 22.6891 19.8472 24.9098 22.6719 24.9098C25.4987 24.9098 27.8248 22.6891 27.8248 19.8659C27.8248 17.0645 25.4987 14.7358 22.6719 14.7358C19.8472 14.7358 17.5433 17.0645 17.5433 19.8659Z" fill="white"/>
</svg>
