<svg width="23" height="23" viewBox="0 0 23 23" fill="none" xmlns="http://www.w3.org/2000/svg">
<path fill-rule="evenodd" clip-rule="evenodd" d="M3.76074 9.4837C3.76074 5.26973 7.28212 1.86377 11.5415 1.86377C15.813 1.86377 19.3344 5.26973 19.3344 9.4837C19.3344 11.6071 18.5622 13.5785 17.2911 15.2495C15.8888 17.0926 14.1605 18.6985 12.215 19.9589C11.7697 20.2503 11.3679 20.2722 10.8792 19.9589C8.92272 18.6985 7.19437 17.0926 5.8041 15.2495C4.53208 13.5785 3.76074 11.6071 3.76074 9.4837ZM8.97722 9.72097C8.97722 11.1326 10.1292 12.2429 11.5415 12.2429C12.9549 12.2429 14.118 11.1326 14.118 9.72097C14.118 8.32026 12.9549 7.15592 11.5415 7.15592C10.1292 7.15592 8.97722 8.32026 8.97722 9.72097Z" fill="#FF3B30"/>
</svg>
