<svg width="23" height="23" viewBox="0 0 23 23" fill="none" xmlns="http://www.w3.org/2000/svg">
<path d="M11.0898 2C6.03284 2 1.92871 6.10413 1.92871 11.161C1.92871 16.2179 6.03284 20.322 11.0898 20.322C16.1466 20.322 20.2507 16.2179 20.2507 11.161C20.2507 6.10413 16.1558 2 11.0898 2ZM13.8381 13.2039L11.1813 14.7338C10.8515 14.9262 10.4851 15.0178 10.1278 15.0178C9.76141 15.0178 9.40404 14.9262 9.07429 14.7338C8.4147 14.349 8.02077 13.6711 8.02077 12.9016V9.83265C8.02077 9.07229 8.4147 8.38521 9.07429 8.00045C9.73392 7.61569 10.5217 7.61569 11.1904 8.00045L13.8471 9.53034C14.5067 9.9151 14.9006 10.593 14.9006 11.3625C14.9006 12.1321 14.5067 12.8191 13.8381 13.2039Z" fill="#1D1D5D"/>
</svg>
