<svg width="31" height="30" viewBox="0 0 31 30" fill="none" xmlns="http://www.w3.org/2000/svg">
<path d="M27.0492 3.51897C26.4383 2.8919 25.534 2.65828 24.6908 2.90419L5.02939 8.6217C4.1398 8.86885 3.50927 9.57831 3.33941 10.4796C3.16589 11.3968 3.77199 12.5613 4.56382 13.0481L10.7115 16.8266C11.3421 17.214 12.1559 17.1168 12.6777 16.5905L19.7174 9.50699C20.0717 9.13812 20.6583 9.13812 21.0128 9.50699C21.3671 9.86357 21.3671 10.4415 21.0128 10.8103L13.9608 17.8952C13.4377 18.4201 13.34 19.2378 13.7249 19.8722L17.4813 26.0817C17.9211 26.8193 18.6788 27.2374 19.5096 27.2374C19.6075 27.2374 19.7174 27.2374 19.8152 27.2251C20.7683 27.1022 21.5259 26.4506 21.807 25.5283L27.6358 5.89205C27.8924 5.05594 27.6602 4.14606 27.0492 3.51897Z" fill="white"/>
</svg>
