<svg width="24" height="23" viewBox="0 0 24 23" fill="none" xmlns="http://www.w3.org/2000/svg">
<path d="M17.4688 13.6484C17.225 13.8847 17.1129 14.2265 17.1685 14.5617L18.0055 19.1941C18.0761 19.5867 17.9104 19.984 17.5818 20.2109C17.2598 20.4463 16.8314 20.4746 16.4802 20.2863L12.3101 18.1113C12.1651 18.0341 12.0041 17.9926 11.8393 17.9879H11.5842C11.4957 18.0011 11.409 18.0294 11.33 18.0727L7.1589 20.258C6.9527 20.3616 6.71919 20.3983 6.4904 20.3616C5.933 20.2561 5.56109 19.7251 5.65242 19.1649L6.4904 14.5325C6.54595 14.1944 6.43391 13.8508 6.19005 13.6107L2.79012 10.3153C2.50577 10.0394 2.40691 9.62512 2.53684 9.25135C2.66301 8.87849 2.98502 8.60639 3.37388 8.54519L8.05337 7.86633C8.40927 7.82961 8.72187 7.61305 8.88193 7.29293L10.9439 3.06538C10.9929 2.97123 11.056 2.88461 11.1322 2.81117L11.217 2.74526C11.2612 2.6963 11.3121 2.65581 11.3686 2.62286L11.4712 2.5852L11.6313 2.51929H12.0276C12.3817 2.55601 12.6933 2.76786 12.8562 3.08422L14.9455 7.29293C15.0961 7.60081 15.389 7.81455 15.727 7.86633L20.4065 8.54519C20.8019 8.60168 21.1324 8.87473 21.2633 9.25135C21.3866 9.62889 21.2802 10.0432 20.9902 10.3153L17.4688 13.6484Z" fill="#FF0000"/>
</svg>
