<svg width="23" height="23" viewBox="0 0 23 23" fill="none" xmlns="http://www.w3.org/2000/svg">
<path d="M17.1974 13.6484C16.9535 13.8847 16.8415 14.2265 16.897 14.5617L17.734 19.1941C17.8047 19.5867 17.6389 19.984 17.3103 20.2109C16.9883 20.4463 16.5599 20.4746 16.2087 20.2863L12.0386 18.1113C11.8936 18.0341 11.7326 17.9926 11.5679 17.9879H11.3127C11.2242 18.0011 11.1376 18.0294 11.0585 18.0727L6.88741 20.258C6.68121 20.3616 6.44771 20.3983 6.21891 20.3616C5.66152 20.2561 5.28961 19.7251 5.38094 19.1649L6.21891 14.5325C6.27447 14.1944 6.16242 13.8508 5.91856 13.6107L2.51864 10.3153C2.23429 10.0394 2.13543 9.62512 2.26536 9.25135C2.39153 8.87849 2.71354 8.60639 3.1024 8.54519L7.78188 7.86633C8.13779 7.82961 8.45038 7.61305 8.61044 7.29293L10.6724 3.06538C10.7214 2.97123 10.7845 2.88461 10.8607 2.81117L10.9455 2.74526C10.9897 2.6963 11.0406 2.65581 11.0971 2.62286L11.1997 2.5852L11.3598 2.51929H11.7562C12.1102 2.55601 12.4218 2.76786 12.5847 3.08422L14.674 7.29293C14.8247 7.60081 15.1175 7.81455 15.4555 7.86633L20.135 8.54519C20.5304 8.60168 20.8609 8.87473 20.9918 9.25135C21.1151 9.62889 21.0087 10.0432 20.7187 10.3153L17.1974 13.6484Z" fill="#FF0000"/>
</svg>
