<svg width="23" height="23" viewBox="0 0 23 23" fill="none" xmlns="http://www.w3.org/2000/svg">
<path d="M17.1065 13.5756C16.8627 13.8119 16.7506 14.1537 16.8062 14.4889L17.6432 19.1213C17.7138 19.5139 17.5481 19.9113 17.2195 20.1382C16.8975 20.3736 16.4691 20.4018 16.1179 20.2135L11.9478 18.0385C11.8028 17.9613 11.6418 17.9199 11.477 17.9152H11.2219C11.1334 17.9284 11.0467 17.9566 10.9677 17.9999L6.79659 20.1853C6.59039 20.2888 6.35689 20.3255 6.12809 20.2888C5.5707 20.1834 5.19879 19.6523 5.29012 19.0921L6.12809 14.4597C6.18365 14.1217 6.0716 13.778 5.82774 13.5379L2.42782 10.2425C2.14347 9.96665 2.04461 9.55237 2.17454 9.17859C2.30071 8.80574 2.62272 8.53363 3.01157 8.47243L7.69106 7.79358C8.04697 7.75686 8.35956 7.5403 8.51962 7.22017L10.5816 2.99263C10.6306 2.89848 10.6937 2.81185 10.7699 2.73841L10.8547 2.6725C10.8989 2.62354 10.9498 2.58306 11.0063 2.5501L11.1089 2.51244L11.2689 2.44653H11.6653C12.0194 2.48325 12.331 2.6951 12.4939 3.01146L14.5832 7.22017C14.7338 7.52806 15.0267 7.74179 15.3647 7.79358L20.0442 8.47243C20.4396 8.52892 20.7701 8.80197 20.901 9.17859C21.0243 9.55613 20.9179 9.97041 20.6279 10.2425L17.1065 13.5756Z" fill="#FF0000"/>
</svg>
