<svg width="24" height="23" viewBox="0 0 24 23" fill="none" xmlns="http://www.w3.org/2000/svg">
<path d="M17.7394 13.6484C17.4955 13.8847 17.3834 14.2265 17.439 14.5617L18.276 19.1941C18.3466 19.5867 18.1809 19.984 17.8523 20.2109C17.5303 20.4463 17.1019 20.4746 16.7507 20.2863L12.5806 18.1113C12.4356 18.0341 12.2746 17.9926 12.1098 17.9879H11.8547C11.7662 18.0011 11.6796 18.0294 11.6005 18.0727L7.42941 20.258C7.22321 20.3616 6.9897 20.3983 6.76091 20.3616C6.20351 20.2561 5.8316 19.7251 5.92293 19.1649L6.76091 14.5325C6.81646 14.1944 6.70441 13.8508 6.46055 13.6107L3.06063 10.3153C2.77628 10.0394 2.67742 9.62512 2.80735 9.25135C2.93352 8.87849 3.25553 8.60639 3.64439 8.54519L8.32387 7.86633C8.67978 7.82961 8.99237 7.61305 9.15244 7.29293L11.2144 3.06538C11.2634 2.97123 11.3265 2.88461 11.4027 2.81117L11.4875 2.74526C11.5317 2.6963 11.5826 2.65581 11.6391 2.62286L11.7417 2.5852L11.9018 2.51929H12.2982C12.6522 2.55601 12.9638 2.76786 13.1267 3.08422L15.216 7.29293C15.3667 7.60081 15.6595 7.81455 15.9975 7.86633L20.677 8.54519C21.0724 8.60168 21.4029 8.87473 21.5338 9.25135C21.6571 9.62889 21.5507 10.0432 21.2607 10.3153L17.7394 13.6484Z" fill="#FF0E00"/>
</svg>
