<svg width="24" height="23" viewBox="0 0 24 23" fill="none" xmlns="http://www.w3.org/2000/svg">
<path d="M17.378 13.5756C17.1342 13.8119 17.0221 14.1537 17.0777 14.4889L17.9147 19.1213C17.9853 19.5139 17.8196 19.9113 17.491 20.1382C17.169 20.3736 16.7406 20.4018 16.3894 20.2135L12.2193 18.0385C12.0743 17.9613 11.9133 17.9199 11.7485 17.9152H11.4934C11.4049 17.9284 11.3182 17.9566 11.2391 17.9999L7.06808 20.1853C6.86188 20.2888 6.62837 20.3255 6.39958 20.2888C5.84218 20.1834 5.47027 19.6523 5.5616 19.0921L6.39958 14.4597C6.45513 14.1217 6.34309 13.778 6.09923 13.5379L2.6993 10.2425C2.41495 9.96665 2.31609 9.55237 2.44602 9.17859C2.57219 8.80574 2.8942 8.53363 3.28306 8.47243L7.96255 7.79358C8.31845 7.75686 8.63104 7.5403 8.79111 7.22017L10.8531 2.99263C10.9021 2.89848 10.9651 2.81185 11.0414 2.73841L11.1262 2.6725C11.1704 2.62354 11.2212 2.58306 11.2777 2.5501L11.3804 2.51244L11.5404 2.44653H11.9368C12.2908 2.48325 12.6025 2.6951 12.7654 3.01146L14.8547 7.22017C15.0053 7.52806 15.2981 7.74179 15.6362 7.79358L20.3156 8.47243C20.7111 8.52892 21.0416 8.80197 21.1725 9.17859C21.2958 9.55613 21.1894 9.97041 20.8994 10.2425L17.378 13.5756Z" fill="#FF0000"/>
</svg>
