<svg width="24" height="23" viewBox="0 0 24 23" fill="none" xmlns="http://www.w3.org/2000/svg">
<path d="M17.6485 13.5756C17.4047 13.8119 17.2926 14.1537 17.3482 14.4889L18.1852 19.1213C18.2558 19.5139 18.0901 19.9113 17.7615 20.1382C17.4395 20.3736 17.0111 20.4018 16.6599 20.2135L12.4898 18.0385C12.3448 17.9613 12.1838 17.9199 12.019 17.9152H11.7639C11.6754 17.9284 11.5887 17.9566 11.5096 17.9999L7.33858 20.1853C7.13239 20.2888 6.89888 20.3255 6.67009 20.2888C6.11269 20.1834 5.74078 19.6523 5.83211 19.0921L6.67009 14.4597C6.72564 14.1217 6.61359 13.778 6.36973 13.5379L2.96981 10.2425C2.68546 9.96665 2.5866 9.55237 2.71653 9.17859C2.8427 8.80574 3.16471 8.53363 3.55357 8.47243L8.23305 7.79358C8.58896 7.75686 8.90155 7.5403 9.06162 7.22017L11.1236 2.99263C11.1726 2.89848 11.2357 2.81185 11.3119 2.73841L11.3967 2.6725C11.4409 2.62354 11.4918 2.58306 11.5482 2.5501L11.6509 2.51244L11.8109 2.44653H12.2073C12.5614 2.48325 12.873 2.6951 13.0359 3.01146L15.1252 7.22017C15.2758 7.52806 15.5687 7.74179 15.9067 7.79358L20.5862 8.47243C20.9816 8.52892 21.3121 8.80197 21.443 9.17859C21.5663 9.55613 21.4599 9.97041 21.1699 10.2425L17.6485 13.5756Z" fill="#FF0E00"/>
</svg>
