<svg width="23" height="24" viewBox="0 0 23 24" fill="none" xmlns="http://www.w3.org/2000/svg">
<path d="M17.1974 14.2314C16.9535 14.4677 16.8415 14.8095 16.897 15.1447L17.734 19.7771C17.8047 20.1697 17.6389 20.567 17.3103 20.7939C16.9883 21.0293 16.5599 21.0576 16.2087 20.8693L12.0386 18.6943C11.8936 18.6171 11.7326 18.5757 11.5679 18.5709H11.3127C11.2242 18.5841 11.1376 18.6124 11.0585 18.6557L6.88741 20.841C6.68121 20.9446 6.44771 20.9813 6.21891 20.9446C5.66152 20.8391 5.28961 20.3081 5.38094 19.7479L6.21891 15.1155C6.27447 14.7775 6.16242 14.4338 5.91856 14.1937L2.51864 10.8983C2.23429 10.6224 2.13543 10.2081 2.26536 9.83435C2.39153 9.4615 2.71354 9.18939 3.1024 9.12819L7.78188 8.44934C8.13779 8.41262 8.45038 8.19606 8.61044 7.87594L10.6724 3.64839C10.7214 3.55424 10.7845 3.46762 10.8607 3.39417L10.9455 3.32827C10.9897 3.27931 11.0406 3.23882 11.0971 3.20587L11.1997 3.1682L11.3598 3.10229H11.7562C12.1102 3.13902 12.4218 3.35086 12.5847 3.66722L14.674 7.87594C14.8247 8.18382 15.1175 8.39755 15.4555 8.44934L20.135 9.12819C20.5304 9.18469 20.8609 9.45774 20.9918 9.83435C21.1151 10.2119 21.0087 10.6262 20.7187 10.8983L17.1974 14.2314Z" fill="#FF0000"/>
</svg>
