<svg width="24" height="24" viewBox="0 0 24 24" fill="none" xmlns="http://www.w3.org/2000/svg">
<path d="M17.4688 14.2314C17.225 14.4677 17.1129 14.8095 17.1685 15.1447L18.0055 19.7771C18.0761 20.1697 17.9104 20.567 17.5818 20.7939C17.2598 21.0293 16.8314 21.0576 16.4802 20.8693L12.3101 18.6943C12.1651 18.6171 12.0041 18.5757 11.8393 18.5709H11.5842C11.4957 18.5841 11.409 18.6124 11.33 18.6557L7.1589 20.841C6.9527 20.9446 6.71919 20.9813 6.4904 20.9446C5.933 20.8391 5.56109 20.3081 5.65242 19.7479L6.4904 15.1155C6.54595 14.7775 6.43391 14.4338 6.19005 14.1937L2.79012 10.8983C2.50577 10.6224 2.40691 10.2081 2.53684 9.83435C2.66301 9.4615 2.98502 9.18939 3.37388 9.12819L8.05337 8.44934C8.40927 8.41262 8.72187 8.19606 8.88193 7.87594L10.9439 3.64839C10.9929 3.55424 11.056 3.46762 11.1322 3.39417L11.217 3.32827C11.2612 3.27931 11.3121 3.23882 11.3686 3.20587L11.4712 3.1682L11.6313 3.10229H12.0276C12.3817 3.13902 12.6933 3.35086 12.8562 3.66722L14.9455 7.87594C15.0961 8.18382 15.389 8.39755 15.727 8.44934L20.4065 9.12819C20.8019 9.18469 21.1324 9.45774 21.2633 9.83435C21.3866 10.2119 21.2802 10.6262 20.9902 10.8983L17.4688 14.2314Z" fill="#FF0000"/>
</svg>
