<svg width="33" height="33" viewBox="0 0 33 33" fill="none" xmlns="http://www.w3.org/2000/svg">
<path d="M24.2486 19.3933C23.9033 19.7279 23.7446 20.2119 23.8233 20.6866L25.0086 27.2466C25.1086 27.8026 24.874 28.3653 24.4086 28.6866C23.9526 29.0199 23.346 29.0599 22.8486 28.7933L16.9433 25.7133C16.738 25.6039 16.51 25.5453 16.2766 25.5386H15.9153C15.79 25.5573 15.6673 25.5973 15.5553 25.6586L9.64861 28.7533C9.35661 28.8999 9.02594 28.9519 8.70194 28.8999C7.91261 28.7506 7.38594 27.9986 7.51527 27.2053L8.70194 20.6453C8.78061 20.1666 8.62194 19.6799 8.27661 19.3399L3.46194 14.6733C3.05927 14.2826 2.91927 13.6959 3.10327 13.1666C3.28194 12.6386 3.73794 12.2533 4.28861 12.1666L10.9153 11.2053C11.4193 11.1533 11.8619 10.8466 12.0886 10.3933L15.0086 4.40663C15.078 4.2733 15.1673 4.15063 15.2753 4.04663L15.3953 3.9533C15.458 3.88397 15.53 3.82663 15.61 3.77997L15.7553 3.72663L15.982 3.6333H16.5433C17.0446 3.6853 17.486 3.9853 17.7166 4.4333L20.6753 10.3933C20.8886 10.8293 21.3033 11.132 21.782 11.2053L28.4086 12.1666C28.9686 12.2466 29.4366 12.6333 29.622 13.1666C29.7966 13.7013 29.646 14.2879 29.2353 14.6733L24.2486 19.3933Z" fill="#FACD49"/>
</svg>
