<svg width="24" height="24" viewBox="0 0 24 24" fill="none" xmlns="http://www.w3.org/2000/svg">
<path d="M17.7394 14.2314C17.4955 14.4677 17.3834 14.8095 17.439 15.1447L18.276 19.7771C18.3466 20.1697 18.1809 20.567 17.8523 20.7939C17.5303 21.0293 17.1019 21.0576 16.7507 20.8693L12.5806 18.6943C12.4356 18.6171 12.2746 18.5757 12.1098 18.5709H11.8547C11.7662 18.5841 11.6796 18.6124 11.6005 18.6557L7.42941 20.841C7.22321 20.9446 6.9897 20.9813 6.76091 20.9446C6.20351 20.8391 5.8316 20.3081 5.92293 19.7479L6.76091 15.1155C6.81646 14.7775 6.70441 14.4338 6.46055 14.1937L3.06063 10.8983C2.77628 10.6224 2.67742 10.2081 2.80735 9.83435C2.93352 9.4615 3.25553 9.18939 3.64439 9.12819L8.32387 8.44934C8.67978 8.41262 8.99237 8.19606 9.15244 7.87594L11.2144 3.64839C11.2634 3.55424 11.3265 3.46762 11.4027 3.39417L11.4875 3.32827C11.5317 3.27931 11.5826 3.23882 11.6391 3.20587L11.7417 3.1682L11.9018 3.10229H12.2982C12.6522 3.13902 12.9638 3.35086 13.1267 3.66722L15.216 7.87594C15.3667 8.18382 15.6595 8.39755 15.9975 8.44934L20.677 9.12819C21.0724 9.18469 21.4029 9.45774 21.5338 9.83435C21.6571 10.2119 21.5507 10.6262 21.2607 10.8983L17.7394 14.2314Z" fill="#FF0E00"/>
</svg>
