<svg width="45" height="45" viewBox="0 0 45 45" fill="none" xmlns="http://www.w3.org/2000/svg">
<path fill-rule="evenodd" clip-rule="evenodd" d="M40.6164 20.2771C40.3683 20.5183 40.0317 20.6559 39.6774 20.6559C38.3661 20.6559 37.3029 21.6888 37.3029 22.9454C37.3029 24.2105 38.3536 25.2382 39.6525 25.2521C40.3843 25.2589 41.0063 25.7547 41.0063 26.4656V30.881C41.0063 34.5974 37.9053 37.6116 34.078 37.6116H28.3015C27.7042 37.6116 27.2205 37.1416 27.2205 36.5615V32.8433C27.2205 32.1203 26.6358 31.5523 25.8916 31.5523C25.1651 31.5523 24.5625 32.1203 24.5625 32.8433V36.5615C24.5625 37.1416 24.0788 37.6116 23.4835 37.6116H11.2906C7.48095 37.6116 4.3623 34.5991 4.3623 30.881V26.4656C4.3623 25.7547 4.98426 25.2589 5.71608 25.2521C7.01668 25.2382 8.06569 24.2105 8.06569 22.9454C8.06569 21.7231 7.03796 20.7936 5.69127 20.7936C5.33687 20.7936 5.0002 20.6559 4.75214 20.4149C4.50406 20.174 4.3623 19.8469 4.3623 19.5027V15.0442C4.3623 11.3329 7.48804 8.29639 11.3084 8.29639H23.4835C24.0788 8.29639 24.5625 8.76633 24.5625 9.34644V13.7532C24.5625 14.459 25.1651 15.0442 25.8916 15.0442C26.6358 15.0442 27.2205 14.459 27.2205 13.7532V9.34644C27.2205 8.76633 27.7042 8.29639 28.3015 8.29639H34.078C37.9053 8.29639 41.0063 11.3088 41.0063 15.027V19.3649C41.0063 19.7092 40.8645 20.0362 40.6164 20.2771ZM25.8916 28.2128C26.6358 28.2128 27.2205 27.6276 27.2205 26.9218V20.0362C27.2205 19.3304 26.6358 18.7452 25.8916 18.7452C25.1651 18.7452 24.5625 19.3304 24.5625 20.0362V26.9218C24.5625 27.6276 25.1651 28.2128 25.8916 28.2128Z" fill="white"/>
</svg>
