<svg width="45" height="45" viewBox="0 0 45 45" fill="none" xmlns="http://www.w3.org/2000/svg">
<path fill-rule="evenodd" clip-rule="evenodd" d="M36.9577 22.4343C36.9577 23.9247 38.1816 25.1375 39.6858 25.1375C40.4444 25.1375 41.06 25.7474 41.06 26.499V31.4025C41.06 35.5491 37.6558 38.9222 33.471 38.9222H12.0068C7.82207 38.9222 4.41602 35.5491 4.41602 31.4025V26.499C4.41602 25.7474 5.03163 25.1375 5.79016 25.1375C7.29623 25.1375 8.52014 23.9247 8.52014 22.4343C8.52014 20.9819 7.3457 19.889 5.79016 19.889C5.42556 19.889 5.07744 19.7455 4.8191 19.4895C4.56076 19.2336 4.41602 18.8867 4.41602 18.5274L4.41968 13.4641C4.41968 9.31756 7.82391 5.94263 12.0086 5.94263H33.4674C37.6521 5.94263 41.0582 9.31756 41.0582 13.4641L41.06 18.3694C41.06 18.7289 40.9153 19.0775 40.6587 19.3316C40.4004 19.5876 40.0523 19.731 39.6858 19.731C38.1816 19.731 36.9577 20.9438 36.9577 22.4343ZM26.8641 23.6197L29.0243 21.5356C29.3999 21.1761 29.53 20.646 29.3669 20.1559C29.2057 19.6656 28.7843 19.3171 28.2749 19.2462L25.2903 18.8142L23.9546 16.1346C23.7256 15.6735 23.2602 15.3866 22.7417 15.3848H22.738C22.2213 15.3848 21.7559 15.6717 21.5233 16.1328L20.1876 18.8142L17.2084 19.2444C16.6936 19.3171 16.2722 19.6656 16.1091 20.1559C15.9479 20.646 16.078 21.1761 16.4517 21.5356L18.6119 23.6197L18.1025 26.5662C18.0146 27.0745 18.2216 27.5792 18.643 27.8825C18.8812 28.0512 19.1579 28.1384 19.4382 28.1384C19.6526 28.1384 19.8688 28.0857 20.0667 27.9823L22.738 26.5917L25.4039 27.9787C25.8656 28.2236 26.4134 28.1855 26.833 27.8806C27.2562 27.5793 27.4632 27.0745 27.3753 26.5662L26.8641 23.6197Z" fill="white"/>
</svg>
