<svg width="1584" height="1205" viewBox="0 0 1584 1205" fill="none" xmlns="http://www.w3.org/2000/svg">
<path d="M-390.686 1114.84C-394.097 1093.25 -376.026 774.924 -252.905 509.485C-142.391 271.55 107.761 132.701 395.137 297.362C703.049 473.84 970.931 487.484 1188.05 430.69C1402.34 374.399 1546.87 213.463 1612.28 111.304C1754.22 -109.473 1956.34 22.0689 1879.82 310.639C1843.75 444.883 1753.85 483.798 1598.9 500.345C1436.93 517.642 1198.51 491.007 866.067 559.455C545.454 625.703 183.38 777.744 -21.9302 966.848C-240.432 1168.27 -362.252 1303.28 -390.686 1114.84Z" fill="url(#paint0_linear_265_1088)" fill-opacity="0.85"/>
<defs>
<linearGradient id="paint0_linear_265_1088" x1="1766.76" y1="905.694" x2="-299.088" y2="218.177" gradientUnits="userSpaceOnUse">
<stop stop-color="#1D1D5D"/>
<stop offset="1" stop-color="#FF0D07"/>
</linearGradient>
</defs>
</svg>
