<svg width="23" height="23" viewBox="0 0 23 23" fill="none" xmlns="http://www.w3.org/2000/svg">
<path fill-rule="evenodd" clip-rule="evenodd" d="M10.6928 3.91302C10.0787 3.91302 9.55627 4.33976 9.40962 4.91493H14.3407C14.1941 4.33976 13.6716 3.91302 13.0575 3.91302H10.6928ZM15.7339 4.91492H17.5487C19.4734 4.91492 21.0407 6.50128 21.0407 8.44943C21.0407 8.44943 20.9858 9.27415 20.9675 10.4227C20.9656 10.5135 20.9216 10.6026 20.8492 10.6564C20.4084 10.982 20.005 11.2511 19.9684 11.2696C18.4469 12.29 16.6788 13.0081 14.7953 13.3653C14.6725 13.3894 14.5515 13.3254 14.4892 13.2159C13.9612 12.3012 12.975 11.7057 11.8752 11.7057C10.7826 11.7057 9.78725 12.2947 9.24372 13.2104C9.18049 13.318 9.06133 13.3801 8.93943 13.3569C7.07149 12.9988 5.30344 12.2817 3.79113 11.2788L2.91123 10.6666C2.83791 10.6203 2.79207 10.5367 2.79207 10.444C2.76458 9.97084 2.71875 8.44943 2.71875 8.44943C2.71875 6.50128 4.28607 4.91492 6.21084 4.91492H8.01645C8.1906 3.56978 9.31796 2.52148 10.6928 2.52148H13.0575C14.4324 2.52148 15.5597 3.56978 15.7339 4.91492ZM20.7291 12.4293L20.6924 12.4479C18.841 13.6909 16.6138 14.5166 14.2765 14.8599C13.9466 14.9062 13.6166 14.6929 13.525 14.359C13.3233 13.5982 12.6725 13.0972 11.8935 13.0972H11.8843H11.866C11.087 13.0972 10.4362 13.5982 10.2345 14.359C10.1429 14.6929 9.81291 14.9062 9.48294 14.8599C7.14573 14.5166 4.91849 13.6909 3.06704 12.4479C3.05788 12.4386 2.96623 12.3829 2.8929 12.4293C2.81041 12.4757 2.81041 12.587 2.81041 12.587L2.87457 17.3182C2.87457 19.2664 4.43272 20.8435 6.35749 20.8435H17.3928C19.3176 20.8435 20.8758 19.2664 20.8758 17.3182L20.9491 12.587C20.9491 12.587 20.9491 12.4757 20.8666 12.4293C20.8208 12.4015 20.7658 12.4108 20.7291 12.4293ZM12.5626 16.3164C12.5626 16.706 12.2601 17.0121 11.8752 17.0121C11.4994 17.0121 11.1877 16.706 11.1877 16.3164V15.1196C11.1877 14.7392 11.4994 14.4238 11.8752 14.4238C12.2601 14.4238 12.5626 14.7392 12.5626 15.1196V16.3164Z" fill="#FF3B30"/>
</svg>
